Coordinates
version=1
nRows=11
nColumns=36
inDegrees=yes

Units are S.I. units (second, meters, Newtons, ...)
If the header above contains a line with 'inDegrees', this indicates whether rotational values are in degrees (yes) or radians (no).

endheader
time	pelvis_tilt	pelvis_list	pelvis_rotation	pelvis_tx	pelvis_ty	pelvis_tz	hip_flexion_r	hip_adduction_r	hip_rotation_r	knee_angle_r	knee_angle_r_beta	ankle_angle_r	subtalar_angle_r	mtp_angle_r	hip_flexion_l	hip_adduction_l	hip_rotation_l	knee_angle_l	knee_angle_l_beta	ankle_angle_l	subtalar_angle_l	mtp_angle_l	lumbar_extension	lumbar_bending	lumbar_rotation	arm_flex_r	arm_add_r	arm_rot_r	elbow_flex_r	pro_sup_r	arm_flex_l	arm_add_l	arm_rot_l	elbow_flex_l	pro_sup_l
      0.00000000	      0.42484736	      0.80594536	      1.88845281	      0.36663757	      0.92984008	     -0.09528102	     -3.59759314	     -6.22230129	     -2.99417633	      4.48100803	      0.07820834	     -0.69589004	    -16.73976027	     -5.48078029	     -0.47376282	     -1.38301682	      0.91514414	      7.65655524	      0.13363210	      2.09027131	    -14.96712075	     -5.48078029	     -5.48241285	      0.74345163	      0.53006121	     -0.94521852	     -8.49362109	      2.45359637	     91.06617268	     90.90739648	     -2.25609502	     -5.75735193	      8.67020564	     93.10525405	     93.06659076
      0.01666670	     -0.38345900	      0.38442947	      1.73785881	      0.36754738	      0.92740242	     -0.09616181	     -2.84165450	     -5.60594749	     -2.86354600	      4.07068225	      0.07104681	      1.81593586	    -14.27280167	     -6.52180128	      0.60596516	     -1.59088862	      1.47234216	      7.33774139	      0.12806775	      2.69510171	    -13.77827817	     -6.52180128	     -3.51397696	      1.69712162	      0.66455853	     -1.95643061	     -7.71553893	     -0.22390551	     91.67767649	     85.94462214	     -2.71722834	     -5.45687864	      7.40694892	     93.00831170	     85.78725304
      0.03333330	     -0.87517892	      0.75054872	      1.41573891	      0.36745066	      0.92652941	     -0.09532834	     -2.59902562	     -6.10809933	     -3.24415232	      3.42571247	      0.05978996	      2.23610431	    -14.07607197	     -6.55957205	      1.06131915	     -1.23866446	      1.26793574	      7.25817307	      0.12667902	      2.98417226	    -13.34503261	     -6.55957205	     -2.96834719	      1.07790098	      0.75420296	     -2.17653106	     -7.52551942	     -0.32492306	     91.28000320	     85.43155156	     -2.16903435	     -5.96733990	      7.04880794	     92.76137115	     85.15870944
      0.05000000	     -0.37401480	      1.04917372	      1.46688819	      0.36739090	      0.92743834	     -0.09541168	     -3.41051668	     -6.48799826	     -3.88001757	      3.03440517	      0.05296036	      3.01221179	    -13.03032247	     -6.65950392	      0.09459191	     -0.87337919	      1.35767145	      6.40473299	      0.11178368	      2.87254903	    -12.97493477	     -6.65950392	     -3.57399454	      0.58522337	      1.00706360	     -2.41028838	     -7.34604992	     -0.20313730	     91.10329789	     84.51319333	     -1.14597792	     -6.36361780	      7.19159915	     92.52849735	     84.01867062
      0.06666670	     -0.03754525	      1.22838591	      1.45034901	      0.37112185	      0.92776671	     -0.09976002	     -4.08451249	     -6.78727644	     -4.34362869	      2.76585850	      0.04827334	      3.35574291	    -12.46850391	     -6.68152497	     -0.68868061	     -0.55278162	      1.56716301	      5.75561103	      0.10045436	      2.74566108	    -12.93978768	     -6.68152497	     -3.81190814	      0.48762645	      1.33027199	     -2.67799948	     -7.43512525	     -0.18084501	     91.50004809	     84.67902933	     -0.90660552	     -6.13496158	      7.28223798	     92.39379992	     84.26203381
      0.08333330	      0.30732776	      1.36393819	      1.42661749	      0.37100161	      0.92817168	     -0.09962802	     -4.66848554	     -6.99871280	     -4.64234815	      2.62818826	      0.04587054	      3.62467985	    -12.33726594	     -6.72520965	     -1.30391654	     -0.28997961	      1.71296761	      5.30293747	      0.09255372	      2.75932530	    -13.24497990	     -6.72520965	     -4.14283148	      0.31053712	      1.44162486	     -2.59888992	     -7.31739371	     -0.21928122	     91.71637091	     84.23848779	     -0.34679442	     -6.37151482	      7.56081448	     92.40738611	     84.05635388
      0.10000000	      0.54163170	      1.45839485	      1.41402809	      0.37066182	      0.92574770	     -0.09933086	     -5.02644710	     -7.15178364	     -4.84283808	      2.58528034	      0.04512165	      3.78878103	    -12.49494676	     -6.79260975	     -1.70328065	     -0.14289215	      1.75235444	      5.03827002	      0.08793440	      2.70683490	    -13.58877232	     -6.79260975	     -4.29510858	      0.21712529	      1.56713982	     -2.26340491	     -7.38538308	     -0.08401521	     91.92320824	     83.11340015	      0.00520212	     -6.66933402	      8.25549979	     92.46160003	     83.21427839
      0.11666670	      0.85621597	      1.56612700	      1.43086451	      0.37058049	      0.92908323	     -0.09932468	     -5.49471371	     -7.26300767	     -5.16486944	      2.47543865	      0.04320455	      3.94755921	    -12.20334295	     -6.92268064	     -2.04759185	     -0.00082443	      1.96296538	      5.03674108	      0.08790772	      2.42663656	    -14.34466041	     -6.92268064	     -4.65340577	      0.07973675	      1.63383105	     -2.18867901	     -7.24474472	      0.10803275	     92.05231474	     80.63835865	      0.37923953	     -6.95738042	      8.73351273	     92.16644076	     81.08627108
      0.13333330	      0.99977854	      1.62282032	      1.47465283	      0.37029870	      0.92918542	     -0.09911110	     -5.71961054	     -7.32903674	     -5.31756467	      2.34897485	      0.04099735	      3.83203525	    -12.22630016	     -7.09258033	     -2.22138678	      0.05157118	      2.06917120	      5.00094926	      0.08728303	      1.93759005	    -15.10606350	     -7.09258033	     -4.86867108	     -0.01940376	      1.81746231	     -2.46411923	     -6.91633806	     -0.04972906	     92.48732114	     79.09212852	      0.81170810	     -7.13320028	      9.38808527	     91.83146886	     80.19328166
      0.15000000	      1.33000763	      1.65725985	      1.45644099	      0.37022123	      0.92956893	     -0.09923355	     -6.13095173	     -7.38702845	     -5.76492844	      2.24808549	      0.03923649	      3.94018386	    -11.66240414	     -7.16032271	     -2.61459682	      0.05863790	      1.84699131	      4.95218847	      0.08643199	      1.84350062	    -14.94784017	     -7.16032271	     -5.31574766	     -0.08926063	      1.77381626	     -2.25158733	     -6.65328944	      0.21131803	     92.59595876	     77.75636590	      1.04364919	     -7.28507627	      9.70552653	     91.83846903	     78.90782871
      0.16666670	      1.59537724	      1.62425299	      1.47969908	      0.36989210	      0.92989269	     -0.09902603	     -6.51331278	     -7.30113614	     -5.94178640	      2.15356960	      0.03758688	      3.90932287	    -11.69268989	     -7.22647365	     -2.90399925	     -0.02793149	      1.70292553	      4.91411073	      0.08576741	      2.00779353	    -14.53650293	     -7.22647365	     -5.72913202	     -0.07313714	      1.71169866	     -2.05795115	     -6.53101208	      0.45719762	     92.73159463	     76.22787848	      1.20642558	     -7.36528563	     10.01692135	     91.78841764	     77.37722994
